<?xml version="1.0" encoding="UTF-8" standalone="no"?>
<!DOCTYPE svg PUBLIC "-//W3C//DTD SVG 1.1//EN" "http://www.w3.org/Graphics/SVG/1.1/DTD/svg11.dtd">
<svg width="100%" height="100%" viewBox="0 0 512 512" version="1.1" xmlns="http://www.w3.org/2000/svg" xmlns:xlink="http://www.w3.org/1999/xlink" xml:space="preserve" xmlns:serif="http://www.serif.com/" style="fill-rule:evenodd;clip-rule:evenodd;stroke-linejoin:round;stroke-miterlimit:2;">
    <circle cx="256" cy="255.614" r="240.856" style="fill:rgb(255,72,0);"/>
    <g transform="matrix(-1,0,0,1,494.127,8.42926)">
        <path d="M283.395,62.4C283.395,55.18 277.542,49.327 270.322,49.327C269.919,49.327 269.515,49.327 269.112,49.327C261.871,49.327 256,55.197 256,62.439L256,432.078C256,435.721 257.447,439.215 260.023,441.791C262.599,444.367 266.093,445.815 269.737,445.815C269.828,445.815 269.919,445.815 270.01,445.815C277.402,445.815 283.395,439.822 283.395,432.429C283.395,371.704 283.395,122.475 283.395,62.4Z"/>
    </g>
    <g transform="matrix(1.29796,0,0,1,-49.0925,6.55609)">
        <rect x="164.761" y="235.395" width="45.971" height="28.098"/>
    </g>
    <g transform="matrix(6.12323e-17,-1,1,6.12323e-17,-128.195,337.717)">
        <path d="M73.309,209.74C75.104,206.818 78.288,205.038 81.717,205.038C85.146,205.038 88.33,206.818 90.125,209.74C104.669,233.404 134.282,281.588 148.051,303.992C149.538,306.412 149.601,309.447 148.215,311.926C146.828,314.406 144.21,315.941 141.369,315.941C113.803,315.941 52.735,315.941 23.814,315.941C20.619,315.941 17.674,314.214 16.115,311.426C14.556,308.637 14.626,305.224 16.299,302.502C30.427,279.514 59.08,232.892 73.309,209.74Z"/>
    </g>
    <g transform="matrix(1,0,0,1,18.5366,8.42926)">
        <path d="M283.395,62.4C283.395,55.18 277.542,49.327 270.322,49.327C269.919,49.327 269.515,49.327 269.112,49.327C261.871,49.327 256,55.197 256,62.439L256,432.078C256,435.721 257.447,439.215 260.023,441.791C262.599,444.367 266.093,445.815 269.737,445.815C269.828,445.815 269.919,445.815 270.01,445.815C277.402,445.815 283.395,439.822 283.395,432.429C283.395,371.704 283.395,122.475 283.395,62.4Z"/>
    </g>
    <g transform="matrix(-1.29796,0,0,1,561.756,6.55609)">
        <rect x="164.761" y="235.395" width="45.971" height="28.098"/>
    </g>
    <g transform="matrix(-6.12323e-17,-1,-1,6.12323e-17,640.859,337.717)">
        <path d="M73.309,209.74C75.104,206.818 78.288,205.038 81.717,205.038C85.146,205.038 88.33,206.818 90.125,209.74C104.669,233.404 134.282,281.588 148.051,303.992C149.538,306.412 149.601,309.447 148.215,311.926C146.828,314.406 144.21,315.941 141.369,315.941C113.803,315.941 52.735,315.941 23.814,315.941C20.619,315.941 17.674,314.214 16.115,311.426C14.556,308.637 14.626,305.224 16.299,302.502C30.427,279.514 59.08,232.892 73.309,209.74Z"/>
    </g>
</svg>
